PathFileType	4	(X/Y/Z)	0_coords_data.trc
DataRate	CameraRate	NumFrames	NumMarkers	Units	OrigDataRate	OrigDataStartFrame	OrigNumFrames
30.0	30.0	5	21	m	30.0	32	53
Frame#	Time	THUMB_TIP	THUMB_IP	THUMB_MCP	THUMB_CMC	INDEX_TIP	INDEX_DIP	INDEX_PIP	INDEX_MCP	MIDDLE_TIP	MIDDLE_DIP	MIDDLE_PIP	MIDDLE_MCP	RING_TIP	RING_DIP	RING_PIP	RING_MCP	PINKY_TIP	PINKY_DIP	PINKY_PIP	PINKY_MCP	WRIST
X1	Y1	Z1	X2	Y2	Z2	X3	Y3	Z3	X4	Y4	Z4	X5	Y5	Z5	X6	Y6	Z6	X7	Y7	Z7	X8	Y8	Z8	X9	Y9	Z9	X10	Y10	Z10	X11	Y11	Z11	X12	Y12	Z12	X13	Y13	Z13	X14	Y14	Z14	X15	Y15	Z15	X16	Y16	Z16	X17	Y17	Z17	X18	Y18	Z18	X19	Y19	Z19	X20	Y20	Z20	X21	Y21	Z21
31	1.0333333333333334	0.03478760147094727	-0.023055500030517578	0.95977197265625	0.01838349914550781	-0.020351200103759765	0.9811220092773437	0.006524439811706543	-0.02879910087585449	1.01447998046875	-0.006977250099182129	-0.004439310073852539	1.0341099853515625	-0.006100269794464111	-0.056999900817871096	0.902427978515625	-0.012178199768066406	-0.052739898681640626	0.9255540161132813	-0.020084600448608398	-0.04832009887695313	0.948968017578125	-0.04028720092773438	-0.03847930145263672	0.9856790161132812	0.000828481972217559	-0.02435059928894043	0.9800079956054687	0.008109959602355957	-0.027309099197387696	0.9616599731445312	-0.012833800315856934	-0.02800519943237305	0.9412050170898437	-0.044379901885986325	-0.015307499885559081	0.9747869873046875	0.009817660331726074	-0.00815291976928711	0.9769099731445312	0.01584160041809082	-0.009697580337524414	0.959177001953125	-0.002893359899520874	-0.00661614990234375	0.937927978515625	-0.032244499206542966	0.006950809955596924	0.9710189819335937	-0.01699090003967285	0.023477500915527343	0.8985689697265625	-0.014294300079345703	0.02317700004577637	0.9208289794921874	-0.013750100135803222	0.022486900329589842	0.9413150024414062	-0.010941200256347657	0.022235599517822266	0.97222900390625	-0.03788550186157227	0.01601219940185547	1.0566099853515625
32	1.0666666666666667	0.0344098014831543	-0.022955900192260743	0.9598989868164063	0.018202899932861328	-0.02010460090637207	0.9813629760742187	0.006532149791717529	-0.028565299987792968	1.0145499877929687	-0.007206289768218994	-0.004231060028076172	1.03397998046875	-0.006306389808654785	-0.056859001159667966	0.9024550170898438	-0.012344099998474122	-0.05255270004272461	0.925583984375	-0.02036429977416992	-0.04807149887084961	0.949093017578125	-0.04041609954833984	-0.0382953987121582	0.9857100219726562	0.001422899961471557	-0.024033300399780272	0.9799959716796875	0.007861310005187989	-0.02716110038757324	0.9616920166015624	-0.012946399688720703	-0.02788290023803711	0.941260009765625	-0.044729000091552736	-0.015049599647521972	0.9746259765625	0.009135760307312012	-0.008032730102539062	0.977	0.015679800033569335	-0.009769490242004394	0.95860498046875	-0.0029961800575256338	-0.006471250057220459	0.9379310302734375	-0.032448699951171875	0.0071785101890563955	0.97125	-0.017249000549316405	0.023763200759887696	0.8986719970703125	-0.014551400184631347	0.023455900192260744	0.9208460083007812	-0.01397599983215332	0.022746400833129884	0.9413699951171876	-0.011306500434875489	0.022459199905395508	0.9723579711914062	-0.03814580154418945	0.016183300018310545	1.056510009765625
33	1.1	0.034634201049804685	-0.022500499725341797	0.9599650268554687	0.018122100830078126	-0.019852699279785155	0.9813920288085938	0.0063640098571777345	-0.028525600433349608	1.0143400268554688	-0.007705560207366943	-0.004153570175170898	1.0341300048828126	-0.0063056998252868654	-0.0566343994140625	0.9025120239257812	-0.012409999847412109	-0.0523838005065918	0.9256179809570313	-0.02041710090637207	-0.04793510055541992	0.949093994140625	-0.040585399627685544	-0.0381797981262207	0.9857490234375	0.000463865011930465	-0.024201900482177734	0.9797839965820313	0.007817989826202392	-0.026750900268554687	0.9623090209960937	-0.01316469955444336	-0.027573699951171874	0.9412620239257813	-0.044762401580810546	-0.015032500267028808	0.974656005859375	0.009222689628601075	-0.007702859878540039	0.9771420288085938	0.015417799949645997	-0.00940876007080078	0.95902001953125	-0.003385149955749511	-0.006155670166015625	0.9381279907226563	-0.032582901000976563	0.007341489791870117	0.9713070068359375	-0.01730660057067871	0.02427429962158203	0.898718994140625	-0.01463230037689209	0.02386429977416992	0.9208699951171875	-0.014225099563598633	0.023104499816894532	0.9415479736328125	-0.011590200424194336	0.02291110038757324	0.9727579956054687	-0.03793489837646485	0.016304300308227538	1.056719970703125
34	1.1333333333333333	0.034573200225830075	-0.022640300750732423	0.9599959716796875	0.018240900039672853	-0.019923200607299806	0.9814310302734375	0.006383979797363281	-0.02852309989929199	1.0146500244140626	-0.007684710025787353	-0.0040230097770690915	1.0341700439453125	-0.006538350105285645	-0.05661109924316406	0.902468017578125	-0.012665399551391602	-0.052339199066162106	0.9255170288085938	-0.02065570068359375	-0.04784749984741211	0.9490579833984375	-0.0405984001159668	-0.038033100128173826	0.9859869995117188	0.0006953340172767631	-0.02424799919128418	0.9791110229492187	0.007839079856872558	-0.026983800888061522	0.9611420288085938	-0.013412099838256836	-0.027525299072265624	0.941093017578125	-0.04475619888305664	-0.014880900382995605	0.974844970703125	0.009141489982604981	-0.007548049926757812	0.9779249877929688	0.015323699951171875	-0.009275190353393555	0.9592940063476563	-0.003404789924621582	-0.00609784984588623	0.9379349975585938	-0.03252050018310547	0.007427480220794678	0.9713579711914062	-0.01687269973754883	0.02506130027770996	0.8987860107421874	-0.014462900161743165	0.02449530029296875	0.9209310302734375	-0.01408530044555664	0.023625499725341798	0.9414940185546875	-0.011504899978637696	0.02299239921569824	0.9725130004882813	-0.03846289825439453	0.016234100341796873	1.056780029296875
35	1.1666666666666667	0.035150901794433594	-0.022883399963378907	0.9606370239257812	0.018487499237060546	-0.020366199493408205	0.9821209716796875	0.006276050090789795	-0.028609699249267578	1.0151799926757812	-0.007826710224151611	-0.004124959945678711	1.034699951171875	-0.005423049926757812	-0.0567510986328125	0.9030800170898438	-0.012309499740600586	-0.05251739883422851	0.9258939819335937	-0.020822799682617188	-0.0481531982421875	0.949010009765625	-0.04057210159301758	-0.03805899810791016	0.986031982421875	0.001002730011940002	-0.024346900939941407	0.9794329833984375	0.007896560192108154	-0.027149099349975586	0.9602650146484375	-0.013919300079345703	-0.027517200469970703	0.9405579833984375	-0.044640998840332034	-0.014801799774169922	0.9756710205078125	0.008425189971923827	-0.007486460208892823	0.9789500122070313	0.014935400009155273	-0.009277389526367188	0.95935498046875	-0.003838939905166626	-0.005967860221862793	0.937697998046875	-0.03279629898071289	0.007472189903259277	0.9717830200195312	-0.015210300445556641	0.02689349937438965	0.8987039794921875	-0.013622699737548828	0.026044300079345703	0.9208599853515625	-0.014010000228881835	0.02483300018310547	0.9414929809570313	-0.011941900253295898	0.023270200729370118	0.9727329711914062	-0.03833879852294922	0.01651110076904297	1.0569599609375
